<svg xmlns="http://www.w3.org/2000/svg" viewBox="0 0 707.41 598.69"><g style="isolation:isolate"><g id="e6e471e0-01fd-45e0-b916-7b0117807966" data-name="Layer 2"><g id="beb68589-7f77-4152-bf3a-2470ac33ade1" data-name="Layer 1"><g id="bfdd74d7-5935-44e6-a1a6-d87a135710b9" data-name="people-talking-hr-services-illustation"><path d="M534.62,281.58A150.59,150.59,0,1,1,384,131,150.6,150.6,0,0,1,534.62,281.58Z" fill="#d6f0fe"/><path d="M621.8,327.28c6.46-6.23,13.52-12.2,14.66-21.94,1.57-13.49-6.83-13.15-14.37-22.81C639.43,271.22,656,267,665.21,245c9.11-21.65-4.69-33.76-25.42-27.14-2.85.9,14-17.39,16.88-20.51,6.36-6.91,10.63-16.74,12.63-25.83,3.61-16.46-2-36.53-22.55-34.54-17.76,1.72-22.77,22.15-27.48,36.7-2.12,6.53-4.4,14.79-5,21.84-10.28-6-15.87-19.13-27.25-7.33-7.94,8.23-7.75,26-1.91,35.2-13.94,1.31-22-1-31.93,9.72-6.4,6.91-12.12,18.1-15.6,27.72-7.91,21.9-14.6,99.55-13.92,124.45C523.67,385.29,608.28,340.31,621.8,327.28Z" fill="#ffeabb"/><path d="M523.86,370.39l.15-.14a192.31,192.31,0,0,0,15-16.16,23,23,0,0,1-1.9-3.86c-1.81-4.14-4.15-8.07-6.18-12.11-1.52-3-2.9-6.12-4.22-9.24q.28-3.06.6-6.14,1.62,4.26,3.51,8.44c1.92,4.23,4.06,8.35,6.22,12.46,1,2,2.25,5.88,3.83,8.25,4-4.77,7.89-9.59,11.84-14.25s7.84-9.55,11.6-14.45a34.67,34.67,0,0,1-5.19-8.31c-1.64-3.25-3.94-6.08-4.87-9.68-1.39-5.34-4.25-10.45-6.14-15.63a93.19,93.19,0,0,1-3.57-13.12c-1.56-7.53-3-15.06-4.12-22.66.53-1.2,1.1-2.42,1.69-3.62,1,7.16,2.42,14.27,3.91,21.34a145,145,0,0,0,9.34,28.94c3,6.7,5.53,15,10.64,20.57q6.84-9,13.23-18.43c-3.54-6.16-7.43-12-10.8-18.34-4.38-8.19-6.67-18.07-8.92-27a176.35,176.35,0,0,1-4.59-25.89c.67-.64,1.33-1.21,2-1.74a171.18,171.18,0,0,0,4.47,25,157.57,157.57,0,0,0,9.32,28.53c2.73,6.05,6.71,11.43,10.13,17.09q6.55-9.72,12.71-19.71c-3.66-3.94-5.41-10.26-7.09-15.11a301.81,301.81,0,0,1-8.61-30.7c-.83-3.56-1.48-7.13-2.06-10.72l2.33-.1c.6,3.45,1.25,6.9,2,10.33a261.33,261.33,0,0,0,7.17,25.31c1.9,5.7,3.42,13.81,7.58,18.81.74-1.22,1.5-2.43,2.24-3.65,3.4-5.64,6.79-11.33,10.05-17.08-3.55-5.5-5.4-11.93-6.8-18.27-1.93-8.8-5.29-17.27-7.23-26.1a162.91,162.91,0,0,1-3.85-27.1,14.45,14.45,0,0,1,2.7-1.75,166.08,166.08,0,0,0,3.31,28.39c1.58,7.5,4.06,14.78,6.28,22.11,2.1,7,3.61,13.8,7,20.25,2.26-4.06,4.47-8.14,6.51-12.28,3.1-6.27,5.63-12.83,8.54-19.2,1.18-2.56,2.58-5.06,4-7.55-.2-.06-5.06-19.45-7.15-28.85-.67-3.07-1.56-6.3-2.41-9.59.41-1.36.82-2.69,1.23-3.95.21-.65.42-1.32.63-2,.79,4.41,1.4,8.88,2.3,13,2.13,9.85,5.15,19.88,6.21,29.92a57.56,57.56,0,0,0,4.72-10c1.48-4.49,2.83-9,4.23-13.49-4.87-9-6.44-20.54-8.58-30.47-.59-2.69-1.16-5.39-1.74-8.08.55-1.08,1.14-2.14,1.76-3.16.79,4.27,1.86,8.51,2.76,12.81,1.81,8.72,3.63,17.81,6.63,26.24A158.72,158.72,0,0,1,644.7,171a2,2,0,0,0,.14-.54c-1.78-7.09-3.32-14.26-5-21.38-.67-2.86-1.59-5.88-2.36-8.92a19.1,19.1,0,0,1,2.65-1.4c.71,3.33,1.23,6.72,2,9.84,1.45,6.2,3,12.4,4.2,18.66,1.9-4.58,3.59-9.24,5.46-13.83a114.44,114.44,0,0,0,5.36-15.19c.49.19,1,.41,1.41.63-.7,3.06-1.75,6.08-2.69,8.91-2.22,6.74-5,13.42-7.65,20-.62,1.51-1.21,3-1.81,4.53,2.14-1.39,19.69-10.74,23.82-11.78a4,4,0,0,1,.07.77c-5,3-24.72,14.06-25,13.91-2.72,7-5.2,14.12-7.47,21.34a84.58,84.58,0,0,1,11.4-4.32c5.07-1.48,9.73-4,14.75-5.57l-.48.94c-4,1.66-7.78,3.68-11.83,5.19-2.65,1-5.4,1.7-8,2.69-2.24.83-3.77,2-6.16,2.28-.6,1.92-1.2,3.82-1.77,5.76-1.62,5.56-4.54,10.12-7.28,15.19-3.69,6.83-6.39,14.23-9.52,21.31-1,2.16-2,4.27-3.05,6.37,3.34-.22,6.28-1.48,9.39-2.88,5-2.26,10.17-4.27,15.12-6.7,7.88-3.86,17-8.93,23.88-15.37.27.3.52.61.77.93-7.62,7.82-18.42,13.66-27.66,18.05-2.3,1.1-18.34,10-22.43,7.81-1.66,3.19-3.42,6.32-5.21,9.43a1,1,0,0,1-.36.62c-1.72,3-3.46,5.95-5.18,8.93,12.15-2.39,24.47-4.84,35.87-9.8a140.27,140.27,0,0,0,26.29-15.17c-.32.93-.66,1.86-1.06,2.83-.17.4-.36.76-.54,1.15-17.52,13.82-40.5,19.74-61.89,24.1a1.48,1.48,0,0,1-.42,0c-.74,1.31-1.49,2.62-2.21,3.94-1.11,2.06-2.35,4-3.61,6a1.36,1.36,0,0,1-1.06,1.66c-1.78,2.7-3.61,5.37-5.32,8.12-3,4.77-5.74,9.59-8.83,14.26,1.41-.43,9.64.29,10.71.25A209.81,209.81,0,0,0,613.59,303a139.13,139.13,0,0,0,20.29-4.48c.72-.21,1.44-.45,2.17-.69a12.55,12.55,0,0,1,.38,1.73q-.93.39-1.92.75A116.33,116.33,0,0,1,616.09,305a119.5,119.5,0,0,1-18.2,1.8,69.11,69.11,0,0,1-9.21.18c-2.86-.27-5.32-1.07-8.21-.26a1,1,0,0,1-.74-.09c-.1.15-.19.3-.29.44-3.62,5.12-7.38,10.2-11.21,15.23,5.22-.24,10.53,2,15.62,2.88a73.05,73.05,0,0,0,23.7,0c6.8-1,13.63-2.4,20.36-3.87-1.09,1.13-2.21,2.25-3.35,3.34-4.74,1.05-9.57,1.84-14.25,2.76a72.05,72.05,0,0,1-29.14.11c-4.08-.76-8.84-2.8-13-2.41a1.49,1.49,0,0,1-1.47-.78c-4.12,5.35-8.36,10.6-12.67,15.73,2.48,1.26,4.87,2.75,7.41,3.94,4.79,2.25,9.77,3.41,14.88,4.77,2.66.7,5.87,1.57,9.21,2.2l-3,1.75-2.28-.36a75.38,75.38,0,0,1-19.6-5.8c-2.46-1.13-6.27-2.2-8.35-4.4-3.24,3.86-6.46,7.77-9.72,11.65a1.42,1.42,0,0,1-1.72,2C536.46,361,532,366,527.28,370.76c-1.16,1.17-2.35,2.31-3.55,3.44C523.77,373,523.81,371.71,523.86,370.39Z" fill="#b9d9c9"/><path d="M521.1,401.05C597.61,387.4,657.4,234.68,658,233.14l-2-.79c-.59,1.53-59.93,153.13-135.25,166.58Z" fill="#2ab0e1"/><path d="M551.39,386.22c-.19.7,6.31-38.73-11.38-42.57s11.19,43.27,11.19,43.27Z" fill="#2ab0e1"/><path d="M571.51,372s.43-47.72-15.39-44.35S571.51,372,571.51,372Z" fill="#2ab0e1"/><path d="M589.36,351.89s-2.74-52.49-22.63-47.23C551.66,308.64,589.36,351.89,589.36,351.89Z" fill="#2ab0e1"/><path d="M615.73,314s1.67-49.64-14.89-43.47S615.73,314,615.73,314Z" fill="#2ab0e1"/><path d="M607.17,329.39s-10.4-49.14-24.69-38.76C572.88,297.62,607.17,329.39,607.17,329.39Z" fill="#2ab0e1"/><path d="M630.87,287.26s.66-54.39-16.25-46.82S630.87,287.26,630.87,287.26Z" fill="#2ab0e1"/><path d="M644.84,256.5s5.85-45.58-5.65-35.85S644.84,256.5,644.84,256.5Z" fill="#2ab0e1"/><path d="M651.94,246.38s31.35-31.48,18.4-36.33S651.94,246.38,651.94,246.38Z" fill="#2ab0e1"/><path d="M644.84,256.5s43.13,3.72,36.6-11.43S644.84,256.5,644.84,256.5Z" fill="#2ab0e1"/><path d="M635,280.1s50.13,5.53,51-12.18S635,280.1,635,280.1Z" fill="#2ab0e1"/><path d="M621.1,301.92s65.54,9.52,62.38-10S621.1,301.92,621.1,301.92Z" fill="#2ab0e1"/><path d="M608.1,323.2s70.36,19.75,72.65-.58S608.1,323.2,608.1,323.2Z" fill="#2ab0e1"/><path d="M583.58,357.2s69.31.79,67.38,19.74S583.58,357.2,583.58,357.2Z" fill="#2ab0e1"/><path d="M601.42,337.61s60.63-8.33,60.54,10.65S601.42,337.61,601.42,337.61Z" fill="#2ab0e1"/><path d="M573.83,368.87s59.23,7.9,48.91,24.66S571.51,372,571.51,372Z" fill="#2ab0e1"/><g opacity="0.3"><path d="M327.3,57.42A35.32,35.32,0,1,1,292,22.11,35.32,35.32,0,0,1,327.3,57.42Z" fill="#fff"/></g><g opacity="0.3"><path d="M604.43,119.49a32.61,32.61,0,1,1-32.61-32.61A32.62,32.62,0,0,1,604.43,119.49Z" fill="#fff"/></g><g opacity="0.3"><path d="M340.15,256.45a24.9,24.9,0,1,1-24.9-24.9A24.9,24.9,0,0,1,340.15,256.45Z" fill="#d6f0fe"/></g><path d="M596.89,199a24.5,24.5,0,1,1-24.5-24.5A24.5,24.5,0,0,1,596.89,199Z" fill="#d6f0fe"/><path d="M569,217.83a13.5,13.5,0,0,1-3.14-.36.62.62,0,0,1-.3-.18l-.17-.17c-1.14-1.2-1.64-1.75-1.79-2a7.24,7.24,0,0,1-1-2.11c-.13-.43-.13-.43,9-6.58a.63.63,0,0,1,.74,0,8,8,0,0,1,1.58,1.7,7.87,7.87,0,0,1,.85,1.69l.54.38-.44-.44,6.86-6.85.38-.38a11.42,11.42,0,0,1-1.69-.91,7.52,7.52,0,0,1-1.7-1.58.62.62,0,0,1,0-.73l5.9-8.74a.61.61,0,0,1,.69-.25,7.19,7.19,0,0,1,2.1,1,22.93,22.93,0,0,1,1.7,1.54l.38.37a.62.62,0,0,1,.2.37c.71,5.19-1.19,11.14-5.08,15.92C580.36,214.75,574.54,217.83,569,217.83Zm-2.66-1.53a12.12,12.12,0,0,0,2.66.28c5.18,0,10.65-2.91,14.62-7.79,3.62-4.46,5.42-9.95,4.84-14.75l-.23-.22c-.41-.39-1.36-1.29-1.54-1.42a5.86,5.86,0,0,0-1.32-.67l-5.36,8a6.1,6.1,0,0,0,1.12,1,6.21,6.21,0,0,0,1.62.78.7.7,0,0,1,.29.19,1.39,1.39,0,0,1-.06,1.89l-7.22,7.2a1.41,1.41,0,0,1-1.9.06.57.57,0,0,1-.2-.3,6.74,6.74,0,0,0-.77-1.57,6.22,6.22,0,0,0-1-1.13l-8,5.37a6.11,6.11,0,0,0,.68,1.32c.07.1.41.49,1.66,1.8Z" fill="#fff"/><path d="M574.31,204.19h-8.78a8.67,8.67,0,1,1,6.72-3.43,3.94,3.94,0,0,0,2.27,2.22.63.63,0,0,1,.4.7A.61.61,0,0,1,574.31,204.19Zm-8.7-1.25h6.61a5.21,5.21,0,0,1-1.27-2.12.64.64,0,0,1,.12-.58,7.42,7.42,0,1,0-5.72,2.7h.26Z" fill="#fff"/><g opacity="0.3"><path d="M514.38,167.47a87,87,0,1,1-87-87A87,87,0,0,1,514.38,167.47Z" fill="#fff"/></g><path d="M358,136.34c0,16.66-14.24,30.18-31.8,30.18S294.4,153,294.4,136.34s14.24-30.19,31.81-30.19S358,119.67,358,136.34Z" fill="#97b8da"/><path d="M351.78,133.46a26.4,26.4,0,1,1-26.4-26.4A26.39,26.39,0,0,1,351.78,133.46Z" fill="#fff"/><polygon points="325.51 131.38 339.44 117.45 326.44 137.42 325.51 131.38" fill="#0e335b"/><polygon points="325.51 131.38 314.37 126.74 326.44 137.42 328.3 134.63 325.51 131.38" fill="#0e335b"/><path d="M327.08,113.27a1.7,1.7,0,1,1-1.7-1.69A1.7,1.7,0,0,1,327.08,113.27Z" fill="#4f5a79"/><path d="M327.08,152.9a1.7,1.7,0,1,1-1.7-1.7A1.7,1.7,0,0,1,327.08,152.9Z" fill="#4f5a79"/><path d="M345.2,134.78a1.7,1.7,0,1,1,1.69-1.69A1.7,1.7,0,0,1,345.2,134.78Z" fill="#4f5a79"/><path d="M305.57,134.78a1.7,1.7,0,1,1,1.7-1.69A1.7,1.7,0,0,1,305.57,134.78Z" fill="#4f5a79"/><g opacity="0.45"><path d="M196.89,97.88a87,87,0,1,1-87-87A87,87,0,0,1,196.89,97.88Z" fill="#d6f0fe"/></g><path d="M245,273.13a2,2,0,0,1-1.9,2.12H60.73a2,2,0,0,1-1.9-2.12V59.78a2,2,0,0,1,1.9-2.12H243.05a2,2,0,0,1,1.9,2.12Z" fill="#bfe7ff"/><path d="M231,257.17a1.72,1.72,0,0,1-1.62,1.8h-155a1.72,1.72,0,0,1-1.61-1.8V75.75a1.72,1.72,0,0,1,1.61-1.81h155A1.73,1.73,0,0,1,231,75.75Z" fill="#00b2e6"/><g opacity="0.3"><path d="M231,258.92a12.68,12.68,0,0,1-1.62.05h-155a12.46,12.46,0,0,1-1.61-.05v-5.35a12.46,12.46,0,0,1,1.61,0h155a12.68,12.68,0,0,1,1.62,0Z" fill="#7c91c3"/></g><path d="M388.76,92.13c0,5.49-4.82,10-10.78,10s-10.77-4.46-10.77-10S372,82.19,378,82.19,388.76,86.64,388.76,92.13Z" fill="#fff"/><g opacity="0.3"><path d="M191.39,122.17a8.27,8.27,0,1,1-8.27-8.27A8.28,8.28,0,0,1,191.39,122.17Z" fill="#7c91c3"/></g><path d="M164.47,98.59A2.44,2.44,0,1,1,162,96.16,2.44,2.44,0,0,1,164.47,98.59Z" fill="#7588ac"/><path d="M152.46,215.55c21.36-13.13,21.3-66,21.3-66.57h-.7c0,.53.07,53.05-21,66Z" fill="#0e335b"/><path d="M159.8,207.52c0,.23-2.67-12.37-8.44-11.44s8.47,11.67,8.47,11.67Z" fill="#0e335b"/><path d="M164.17,200.88s-5.5-14.38-9.85-11.5S164.17,200.88,164.17,200.88Z" fill="#0e335b"/><path d="M167.16,192.74s-7-15.45-12.37-11.52C150.73,184.2,167.16,192.74,167.16,192.74Z" fill="#0e335b"/><path d="M170.6,178.24s-5.36-15.11-9.6-11.31S170.6,178.24,170.6,178.24Z" fill="#0e335b"/><path d="M169.85,183.88s-8.92-13.53-12-8.73C155.81,178.38,169.85,183.88,169.85,183.88Z" fill="#0e335b"/><path d="M172,168.43s-6.22-16.41-10.4-12.14S172,168.43,172,168.43Z" fill="#0e335b"/><path d="M172.56,157.55s-3.62-14.38-5.92-10.1S172.56,157.55,172.56,157.55Z" fill="#0e335b"/><path d="M173.5,153.67s5.7-13.15,1.24-13.08S173.5,153.67,173.5,153.67Z" fill="#0e335b"/><path d="M172.56,157.55s13.39-4,9.64-7.75S172.56,157.55,172.56,157.55Z" fill="#0e335b"/><path d="M172.39,165.8s15.7-4.26,13.87-9.68S172.39,165.8,172.39,165.8Z" fill="#0e335b"/><path d="M170.79,174s20.8-4.87,17.56-10.35S170.79,174,170.79,174Z" fill="#0e335b"/><path d="M169.4,181.91s23.46-2.37,21.75-8.74S169.4,181.91,169.4,181.91Z" fill="#0e335b"/><path d="M166.05,195s20.9-8,22.56-2S166.05,195,166.05,195Z" fill="#0e335b"/><path d="M169.09,187s17.22-9.65,19.44-3.94S169.09,187,169.09,187Z" fill="#0e335b"/><path d="M164.5,199.67s18.71-4.62,17.59,1.63-17.92-.42-17.92-.42Z" fill="#0e335b"/><path d="M154.82,217.59c-31.55-19.38-31.45-97.52-31.45-98.3h1c0,.77-.11,78.33,31,97.42Z" fill="#d6f0fe"/><path d="M144,205.74c0,.34,3.95-18.27,12.47-16.89s-12.51,17.23-12.51,17.23Z" fill="#d6f0fe"/><path d="M137.53,195.93s8.12-21.23,14.55-17S137.53,195.93,137.53,195.93Z" fill="#d6f0fe"/><path d="M133.11,183.9s10.37-22.8,18.27-17C157.37,171.29,133.11,183.9,133.11,183.9Z" fill="#d6f0fe"/><path d="M128,162.5s7.91-22.31,14.17-16.7S128,162.5,128,162.5Z" fill="#d6f0fe"/><path d="M129.13,170.83s13.18-20,17.71-12.89C149.88,162.71,129.13,170.83,129.13,170.83Z" fill="#d6f0fe"/><path d="M126,148s9.18-24.24,15.36-17.94S126,148,126,148Z" fill="#d6f0fe"/><path d="M125.14,131.94s5.34-21.23,8.74-14.91S125.14,131.94,125.14,131.94Z" fill="#d6f0fe"/><path d="M123.75,126.21s-8.42-19.41-1.83-19.31S123.75,126.21,123.75,126.21Z" fill="#d6f0fe"/><path d="M125.14,131.94s-19.78-5.86-14.24-11.44S125.14,131.94,125.14,131.94Z" fill="#d6f0fe"/><path d="M125.39,144.13s-23.18-6.29-20.49-14.3S125.39,144.13,125.39,144.13Z" fill="#d6f0fe"/><path d="M127.75,156.21S97,149,101.83,140.92,127.75,156.21,127.75,156.21Z" fill="#d6f0fe"/><path d="M129.81,167.92S95.17,164.41,97.69,155,129.81,167.92,129.81,167.92Z" fill="#d6f0fe"/><path d="M134.75,187.27s-30.87-11.73-33.31-3S134.75,187.27,134.75,187.27Z" fill="#d6f0fe"/><path d="M130.26,175.46s-25.43-14.24-28.7-5.82S130.26,175.46,130.26,175.46Z" fill="#d6f0fe"/><path d="M137,194.14s-27.64-6.83-26,2.41,26.46-.62,26.46-.62Z" fill="#d6f0fe"/><path d="M140.17,227.54l-.95-.33c11.38-33.07,6.17-116.51,6.12-117.35l1-.06C146.39,110.64,151.61,194.28,140.17,227.54Z" fill="#ffeac0"/><path d="M144.13,207.91s18.55-19.42,18.17-8.34S144.13,207.91,144.13,207.91Z" fill="#ffeac0"/><path d="M146.14,117.22s-6-14.13-.94-17.13S146.14,117.22,146.14,117.22Z" fill="#ffeac0"/><path d="M146.47,120.58s3.76-17.79,7.77-12.4S146.47,120.58,146.47,120.58Z" fill="#ffeac0"/><path d="M146.79,123.94s11.13-11,12.78-4.66S146.79,123.94,146.79,123.94Z" fill="#ffeac0"/><path d="M146.87,130.23s12.32-8.08,15.26-2.42S146.87,130.23,146.87,130.23Z" fill="#ffeac0"/><path d="M147,138.54s13.43-9.27,17-3.88S147,138.54,147,138.54Z" fill="#ffeac0"/><path d="M147.73,147.8s12.83-10.08,16.72-4.92S147.73,147.8,147.73,147.8Z" fill="#ffeac0"/><path d="M147,154.85s12.83-10.08,16.72-4.92S147,154.85,147,154.85Z" fill="#ffeac0"/><path d="M147.34,163.59S161,153.27,165,158.39,147.34,163.59,147.34,163.59Z" fill="#ffeac0"/><path d="M145.61,122.08s-4.62-17.58-8.37-12S145.61,122.08,145.61,122.08Z" fill="#ffeac0"/><path d="M145.45,126.46s-11.65-10.49-13-4S145.45,126.46,145.45,126.46Z" fill="#ffeac0"/><path d="M147,133.42s-12.7-7.46-15.36-1.67S147,133.42,147,133.42Z" fill="#ffeac0"/><path d="M147,153.61s-10.89-12.14-15.61-7.73S147,153.61,147,153.61Z" fill="#ffeac0"/><path d="M147.67,143.47s-11.91-11.14-16.23-6.34S147.67,143.47,147.67,143.47Z" fill="#ffeac0"/><path d="M147.76,162.81s-11.53-12.6-16.4-8.29S147.76,162.81,147.76,162.81Z" fill="#ffeac0"/><path d="M146.64,173s14.64-10.62,18.8-5.54S146.64,173,146.64,173Z" fill="#ffeac0"/><path d="M146.25,180.37s17.83-7,20.5-1.6S146.25,180.37,146.25,180.37Z" fill="#ffeac0"/><path d="M146.53,192.43s14.07-11.23,16.78-5.73S146.53,192.43,146.53,192.43Z" fill="#ffeac0"/><path d="M144.15,204.54s-5.67-13.45-9.38-9.43S144.15,204.54,144.15,204.54Z" fill="#ffeac0"/><path d="M145.53,194.14s-4.33-11.77-10.38-8.44S145.53,194.14,145.53,194.14Z" fill="#ffeac0"/><path d="M146.94,175s-4.32-11.78-10.38-8.44S146.94,175,146.94,175Z" fill="#ffeac0"/><path d="M146.24,183.4s-8-13.81-10.39-8.11S146.24,183.4,146.24,183.4Z" fill="#ffeac0"/><path d="M125.05,203.36c0,17.93,9.09,49.2,9.09,49.2l28.23-.34s7.95-30.5,7.95-48.86Z" fill="#bacae4"/><path d="M141,252.48l21.34-.26s7.95-30.5,7.95-48.86h-5.5C165.21,208.33,166,234.83,141,252.48Z" fill="#a8bee2"/><rect x="122.42" y="202.85" width="50.05" height="3.36" fill="#93aee2"/><path d="M128.07,251.48c0,1.56,9.05,2.82,20.2,2.82s20.2-1.26,20.2-2.82Z" fill="#b0bcd8"/><path d="M314.29,261.09l-.13,0a.51.51,0,0,1-.33-.24l-8.74-14.28a.55.55,0,0,1-.06-.4l.14-.59a.55.55,0,0,1,.65-.4.53.53,0,0,1,.39.65l-.09.37,8.34,13.64,13.64-8.34.08-.38a.55.55,0,0,1,.65-.39.52.52,0,0,1,.39.64l-.14.59a.51.51,0,0,1-.24.33L314.57,261A.6.6,0,0,1,314.29,261.09Z" fill="#fff"/><path d="M325.34,266.58l-.13,0-23.39-5.63a.54.54,0,0,1-.39-.65l3.6-14.92a.48.48,0,0,1,.24-.33.51.51,0,0,1,.4-.07l23.39,5.64a.52.52,0,0,1,.39.64l-3.59,14.93a.56.56,0,0,1-.25.33A.5.5,0,0,1,325.34,266.58ZM302.6,260l22.34,5.38,3.35-13.89-22.35-5.38Z" fill="#fff"/><path d="M298.46,70.66H286V70a12.14,12.14,0,0,0-2.11-6.79A11.55,11.55,0,0,1,280.49,55a11.75,11.75,0,1,1,20,8.36,12.22,12.22,0,0,0-2,6.69Zm-11.22-1.25h10a13.43,13.43,0,0,1,2.31-6.86A10.51,10.51,0,1,0,281.73,55a10.41,10.41,0,0,0,3.13,7.47A13.5,13.5,0,0,1,287.24,69.41Z" fill="#d6f0fe"/><path d="M294.17,80.16H290.3A4.37,4.37,0,0,1,286,75.7V70.62a.62.62,0,0,1,.62-.62.63.63,0,0,1,.63.62V75.7a3.12,3.12,0,0,0,3,3.21h3.87a3.13,3.13,0,0,0,3-3.21V70.62a.63.63,0,0,1,1.25,0V75.7A4.38,4.38,0,0,1,294.17,80.16Z" fill="#d6f0fe"/><path d="M292,70.51a.64.64,0,0,1-.61-.47.65.65,0,0,1,.46-.76l.18,0a8.67,8.67,0,0,0,2.05-.66,8.63,8.63,0,0,0-2-.66c-1.57-.39-3-.75-3-1.87s1.48-1.55,3-1.94a6.24,6.24,0,0,0,2.11-.73,19.48,19.48,0,0,0-2.12-.59c-1.56-.38-3-.75-3-1.87s1.48-1.49,3-1.87a8.63,8.63,0,0,0,2-.66,8.63,8.63,0,0,0-2-.66c-1.57-.38-3-.75-3-1.87s1.48-1.49,3-1.87a6.42,6.42,0,0,0,2.12-.74.59.59,0,0,1,.62-.59.65.65,0,0,1,.61.67c0,1.12-1.48,1.48-3.05,1.87a6.43,6.43,0,0,0-2.11.74c.18.1,1.39.4,2.12.58,1.56.38,3,.75,3,1.87s-1.48,1.49-3,1.87a8.57,8.57,0,0,0-2,.66,8.63,8.63,0,0,0,2,.66c1.57.39,3.05.75,3.05,1.87s-1.48,1.49-3,1.88a6.22,6.22,0,0,0-2.12.73,10.49,10.49,0,0,0,2.12.65c1.56.38,3,.74,3,1.87s-1.49,1.49-3.06,1.87l-.18,0Z" fill="#d6f0fe"/><path d="M297.53,76.93H286.94a.63.63,0,0,1,0-1.25h10.59a.63.63,0,1,1,0,1.25Z" fill="#d6f0fe"/><path d="M297.67,73.92H286.8a.63.63,0,1,1,0-1.25h10.87a.63.63,0,1,1,0,1.25Z" fill="#d6f0fe"/><path d="M276.77,55.32h-4.23a.63.63,0,0,1,0-1.25h4.23a.63.63,0,0,1,0,1.25Z" fill="#d6f0fe"/><path d="M292,40.16a.63.63,0,0,1-.63-.63V35.31a.63.63,0,0,1,1.25,0v4.22A.63.63,0,0,1,292,40.16Z" fill="#d6f0fe"/><path d="M276.33,68.55a.63.63,0,0,1-.45-1.07l3-3a.62.62,0,0,1,.88,0,.61.61,0,0,1,0,.88l-3,3A.66.66,0,0,1,276.33,68.55Z" fill="#d6f0fe"/><path d="M279.18,45.12a.62.62,0,0,1-.44-.18l-3-3a.63.63,0,0,1,0-.88.61.61,0,0,1,.88,0l3,3a.63.63,0,0,1-.44,1.07Z" fill="#d6f0fe"/><path d="M311.42,55.32h-4.21a.63.63,0,1,1,0-1.25h4.21a.63.63,0,1,1,0,1.25Z" fill="#d6f0fe"/><path d="M307.64,68.55a.62.62,0,0,1-.44-.18l-3-3a.63.63,0,1,1,.89-.88l3,3a.63.63,0,0,1-.44,1.07Z" fill="#d6f0fe"/><path d="M304.79,45.12a.63.63,0,0,1-.44-1.07l3-3a.63.63,0,0,1,.89.88l-3,3A.62.62,0,0,1,304.79,45.12Z" fill="#d6f0fe"/><polygon points="569.6 121.96 531.89 121.96 536.11 61.88 573.82 61.88 569.6 121.96" fill="#b0bcd8"/><polygon points="552.24 122.25 514.54 122.25 518.75 65.3 556.46 65.3 552.24 122.25" fill="#f0f3fa"/><g opacity="0.3"><polygon points="546.75 93.5 519.82 93.5 519.67 95.49 546.61 95.49 546.75 93.5" fill="#b0bcd8"/><polygon points="520.62 82.61 520.48 84.6 547.41 84.6 547.56 82.61 520.62 82.61" fill="#b0bcd8"/><polygon points="520.97 78 520.82 80 547.75 80 547.9 78 520.97 78" fill="#b0bcd8"/></g><rect x="447.42" y="74.48" width="3.33" height="49.99" fill="#b7cae4"/><path d="M498.67,509.38c0,5.89-85.84,10.66-191.73,10.66s-191.75-4.77-191.75-10.66S201,498.73,306.94,498.73,498.67,503.5,498.67,509.38Z" fill="#ffeac0"/><path d="M574.05,473.66c0,3.53-32.78,6.38-73.22,6.38s-73.23-2.85-73.23-6.38,32.78-6.38,73.23-6.38S574.05,470.14,574.05,473.66Z" fill="#ffeac0"/><path d="M437.21,197.72a31.57,31.57,0,1,1-31.57-31.57A31.58,31.58,0,0,1,437.21,197.72Z" fill="#d6f0fe"/><rect x="298.01" y="463.1" width="75.39" height="1.25" transform="translate(-194.56 679.49) rotate(-76.24)" fill="#0e335b"/><rect x="399.75" y="423.28" width="1.25" height="76.52" transform="translate(-74.58 77.18) rotate(-10.08)" fill="#0e335b"/><polygon points="337.46 501.72 336.23 501.48 349.68 433.29 350.91 433.54 337.46 501.72" fill="#0e335b"/><rect x="391.31" y="430.04" width="1.25" height="70.88" transform="translate(-61.84 60.05) rotate(-8.12)" fill="#0e335b"/><path d="M380,336c23.88-25.94,28.48,19.53,29.22,33.55,1,18.8,1.19,39.7-10,55.5-13.88,19.65-51.19,18.71-61.72-3.44-8.39-17.65,5.07-24.17,15.51-36.77C365.13,370.18,366.77,350.33,380,336Z" fill="#2ab0e1"/><path d="M224.68,527.4c0,6-33.83,10.82-75.55,10.82s-75.55-4.85-75.55-10.82,33.82-10.83,75.55-10.83S224.68,521.42,224.68,527.4Z" fill="#ffeac0"/><path d="M370.89,292.79a23.4,23.4,0,0,1,18,8.08c4.13,4.57,4.77,10.12,1.86,15.29s-7.84,7.42-1.17,11.68c5.7,3.64,7.72,9.65,7.4,16.36-.26,5.21-2.12,11.67-7,14.41s-12.34.77-17.53-.41c-9.31-2.11-22.36-11.52-14.75-21-2.33-2.15-4.67-1.94-6.17-5.17-1.4-3-.85-6.59-.19-9.72,2.2-10.49,10.75-13.43,19.17-18.21Z" fill="#0e335b"/><path d="M369.29,502.89c-.63.31,1.06,3.32.32,6.38s1.12,4.66,3.29,6.81c1.91,1.88,3.48,4.48,6.05,5.75a20.66,20.66,0,0,0,4.16,1.27s-.37-3.29-.74-4.71a10.49,10.49,0,0,0-2-3.46,16.08,16.08,0,0,1-1.93-3.81c-.56-1.33-1.82-2.85-2.22-4.23-.31-1.06.42-4.1-.39-4.65s-3.46.68-4.39.65S370.16,502.93,369.29,502.89Z" fill="#6d3724"/><path d="M347.42,475.19l-6.61-1.74c-1.09,4-2.45,7.39-4.14,9.42-4.72,5.67-6.8,3-11.28,2.6s-2.55.75,2.6,5.52,6.93,1.45,9.95.14,9.2.47,8.86-3.17C346.5,484.58,343.83,482.55,347.42,475.19Z" fill="#6d3724"/><path d="M345.59,482.51s-10.32,9.38-17.34,3.55a1,1,0,0,0-.11-.1,18.59,18.59,0,0,0-2.75-.49c-4.48-.37-2.55.75,2.6,5.52s6.93,1.45,9.95.14,9.2.47,8.86-3.17C346.64,486.11,345.76,484.66,345.59,482.51Z" fill="#0e335b"/><path d="M363,326.81c-1.31,2.39.53,7.81-.56,10.3-1.2,2.74-7.78,6.25-10.2,7.8s-.9,2.52,1,5.21c2.16,3.13,18.45,13.71,22.14,11.83,6.49-3.31,15.69-12.18,6.15-18-2.49-1.51-6.53-4.38-7.36-7.11-.74-2.53.44-9-1.44-10.45-.95-.7-7.79-1-8.85-.47A2.07,2.07,0,0,0,363,326.81Z" fill="#f9cfc1"/><path d="M355.88,344.58c2.92.76,5.61,2.45,9.07,3.23a20.08,20.08,0,0,0,9.56-.21c3.24-.85,3.84-3.08,6.94-3.63s12.13,1.73,13.74,4.9c.79,1.54.25,6.84.33,8.65.18,4.73,0,9.51,0,14.24,0,9.77,2.46,19.37,1.61,29-.42,4.71.5,10.67-1.2,15.13s-5.54,4-9.7,4.15a273.63,273.63,0,0,1-35.3-1c-6.66-.72-5.61-9.67-6.39-15.55a249.52,249.52,0,0,1-2.08-30.26c0-6.56,3.7-27.19,6.54-28.27A10.74,10.74,0,0,1,355.88,344.58Z" fill="#faae70"/><path d="M394.43,347.6a25.85,25.85,0,0,1,2,2.83c5.88,9,6.82,21,8.78,31.37.57,3,2.67,16.21,2.64,17.29s-9.15,1.14-14.49,1.59c-1.62.14-5.42,1.69-6.78.93-1.64-.91-1.59-4.54-.49-5.75.78-.84,2.84-1.38,3.87-2.08,2.35-1.62,7.26-3,7.26-3s-2.57-7.15-3.21-8.87a45.84,45.84,0,0,1-2.25-10,72.86,72.86,0,0,1,0-15.9c.24-2.51-.23-7.66,1-9.74A5,5,0,0,1,394.43,347.6Z" fill="#f9cfc1"/><path d="M345,401.14a19.85,19.85,0,0,0-3,6.58c-3,11.41.2,19.69,9.24,26.85,8.12,6.43,8.61,14.17,9.41,23.61A227.34,227.34,0,0,0,366,490c1.14,5,2.45,10,3.19,15,2.71.16,4.2,1,7.12.1-1.1-17.52-2-37,2-54,3.33-14.12,9.91-35.83-.67-48.5-2.1-2.51-8.27-6.82-11.2-5.5-3.2.07-6.59.32-9.73-.34-2.24-.47-3.38-1.15-5.74-.34A12.43,12.43,0,0,0,345,401.14Z" fill="#0e335b"/><path d="M396.94,411.3c-11.16,11.29-24.39-18.48-35.3-9.19s-9.94,31.6-15.45,47.38c-2.08,6-3,18.56-5.78,24.48,3.83.48,3.69,5.74,6.47,3.19s3.5-5.87,8.85-15.82,5.63-19.86,11.4-29.14c7.8-12.52,7.52,1.06,16.33,3.8,11.13,3.47,15.71-7.72,15.65-16.61a26.51,26.51,0,0,0-.66-5.4c-.27-1.28-1.37-5.95-1.51-4.32Z" fill="#0e335b"/><path d="M380.35,514.93c-.13-.17-.25-.34-.37-.52a3,3,0,0,1-1,3c-3.05,2.27-9-9-9-9l-.18,0a6.2,6.2,0,0,1-.16,1c-.72,3.06,1.12,4.66,3.29,6.81,1.91,1.88,3.48,4.48,6.05,5.75a20.66,20.66,0,0,0,4.16,1.27s-.37-3.29-.74-4.71A10.49,10.49,0,0,0,380.35,514.93Z" fill="#0e335b"/><path d="M371.6,329.74c.31-.55,0-.5.41-1a15.7,15.7,0,0,0,1.26-2,4.11,4.11,0,0,0-1-2.8c-1-.7-7.78-1-8.84-.47a2.07,2.07,0,0,0-.84.87c-1.15,2.07.43,8.55.07,11.29C364.21,336.51,368.45,335.23,371.6,329.74Z" fill="#b9b3c0" style="mix-blend-mode:multiply"/><path d="M372.93,328.44a12.3,12.3,0,0,0,1.28-1.4c5-6.44,4.56-17.51,1.61-24.72-2-4.77-7.41-8.94-12.8-7.76-5.88,1.29-5.77,8.21-7.38,13-2.59,7.76-6,10.14-1.81,18.25C357.52,333,367.32,333.69,372.93,328.44Z" fill="#f9cfc1"/><path d="M354.29,308.94c4.57-5.07,11.19-8.93,15.73-1.32,2,3.29,2.23,8.77,5.37,11.27,4.3,3.43,6.79,0,7.7-4.21,2-9.1-.82-20.76-10.92-23.25-9.24-2.29-20.38,6.91-17.88,16.62Z" fill="#0e335b"/><path d="M407.78,400.17c-1.58,2.36-36.19.53-36.19.53s-7.85-.27-10.3.26H348.62a9.54,9.54,0,0,1,8.45-5.23,40.45,40.45,0,0,1,9.77.52l32.75-8.37S409.37,397.82,407.78,400.17Z" fill="#f9cfc1"/><rect x="172.43" y="463.1" width="75.39" height="1.25" transform="translate(-290.28 557.5) rotate(-76.24)" fill="#0e335b"/><rect x="274.16" y="423.28" width="1.25" height="76.52" transform="translate(-76.52 55.2) rotate(-10.08)" fill="#0e335b"/><polygon points="211.87 501.72 210.64 501.48 224.09 433.29 225.32 433.54 211.87 501.72" fill="#0e335b"/><rect x="265.72" y="430.04" width="1.25" height="70.88" transform="translate(-63.09 42.3) rotate(-8.12)" fill="#0e335b"/><path d="M254.41,336c23.89-25.94,28.48,19.53,29.22,33.55,1,18.8,1.19,39.7-10,55.5-13.88,19.65-51.19,18.71-61.72-3.44-8.39-17.65,5.08-24.17,15.52-36.77C239.54,370.18,241.18,350.33,254.41,336Z" fill="#2ab0e1"/><path d="M236.29,508.16l.8,7.75s-8.49,4.52-13.92,3,7.61-2.86,5.36-9.43S236.29,508.16,236.29,508.16Z" fill="#4b5b7f"/><path d="M244.53,508l-.8,7.76s8.49,4.52,13.93,3-7.61-2.87-5.35-9.42S244.53,508,244.53,508Z" fill="#4b5b7f"/><path d="M207.89,407.62a14.74,14.74,0,0,0,2.58-3.45c4.77-8.89,21.92-5.31,30.09-5.31,4.36,0,8.77,1,13.07.92s8.3-2.08,12.73-.3c1,7.62,9.23,8.81,12.7,14.57,3,5,3.58,12.87,3.17,17-1,9.6-5.68,18.06-8.9,27.23-3.38,9.64-17.94,46.93-19.91,51.81-6.57,1-6.37.6-10-.33.32-7.17,9.1-42.1,10.9-51.45,1.14-5.88,7.37-23,5.27-29.16-1.86-5.44-9.56,1.48-20.44,1.76s-16.11-6.85-18-1.4c-2.1,6.17,3.57,22.92,4.71,28.8,1.81,9.35,10.58,44.28,10.91,51.45-3.65.93-4.93.16-8.66,1-.19-.78-9.82-18.51-11.39-23.32-3.17-9.76-6.5-19.5-9.88-29.14C202.93,447,198.15,435,197,423,196.07,414,203,412.55,207.89,407.62Z" fill="#0e335b"/><path d="M236.69,315.06s-.35,6.94-4.15,12.2S246,334,254.45,330.17c0,0-4.09-12-3.51-20.73S238.5,312.79,236.69,315.06Z" fill="#824c33"/><path d="M211.75,404.75c-9.32,4.59-14.25-.5-13.13-12.56S210.82,347.89,216,337s12.48-9.18,12.48-9.18H257s7.27-1.73,12.49,9.18,15.74,43.15,16.85,55.21-4.36,17.15-13.68,12.56C266.67,402.52,221.07,400.15,211.75,404.75Z" fill="#97b8da"/><path d="M228.75,328.72l5.25-3.8,8.47,3.5,10.81-3.5,3.51,4.09S250.94,346.24,228.75,328.72Z" fill="#97b8da"/><path d="M235.17,322.29a9.57,9.57,0,0,0,7.06,3.84,11.24,11.24,0,0,0,9.55-4.06c-1.07-6.59-1.5-16.48-1.5-16.48a4.71,4.71,0,0,0-3.34-1.25,13.84,13.84,0,0,0-6.2,2.52c-2.41,2-4.23,5-4.05,8.2A14.91,14.91,0,0,1,235.17,322.29Z" fill="#ecb49f" style="mix-blend-mode:multiply"/><path d="M230.72,298s5,24.7,15.55,24.75,10.13-15.19,8.62-25.24c-1.52-10.92-.66-12.36-12.95-12.57C230.1,284.77,230.72,298,230.72,298Z" fill="#824c33"/><polygon points="242.79 330.33 240.47 335.27 241.81 338.23 235.88 390.77 241.26 402.89 248.27 391.04 244.23 337.69 244.77 335.27 242.79 330.33" fill="#faae70"/><path d="M234.94,282.46c-2.41,3.65-8.58,1.93-9.89,7.76-.77,3.47,1.8,7.62,3,10.78,1.36,3.72,3.43,8.32,8.2,6.06,2.95-1.39,3.86-5.52,6.65-7.21,4.79-2.9,9.31-.9,14.31-.83,9.89.14,2.37-16.06-2.72-18.56-4.32-2.12-14.59-3-18.22.35A8,8,0,0,0,234.94,282.46Z" fill="#0a113a"/><polygon points="240.97 330.33 239 335.27 230.38 331.23 240.08 336.62 240.97 330.33" fill="#67849a"/><polygon points="245.13 329.74 247.11 334.68 255.72 330.64 246.03 336.03 245.13 329.74" fill="#67849a"/><rect x="34.04" y="401.25" width="406.55" height="7.57" fill="#b7cae4"/><rect x="426.84" y="122.24" width="152.62" height="7.21" fill="#b7cae4"/><rect x="12.17" y="458.84" width="120.42" height="2.5" transform="translate(-379.94 349.04) rotate(-67.27)" fill="#b7cae4"/><rect x="394.75" y="399.88" width="2.5" height="120.42" transform="translate(-146.94 188.6) rotate(-22.71)" fill="#b7cae4"/><polygon points="120.1 361.13 155.73 360.55 144.63 393.26 144.05 397.93 103.74 397.93 120.1 363.47 120.1 361.13" fill="#0e335b"/><polygon points="451.99 60.98 462.82 60.86 463.44 122.98 452.62 123.09 451.99 60.98" fill="#b0bcd8"/><polygon points="477.06 123.06 466.23 122.81 467.68 60.71 478.49 60.97 477.06 123.06" fill="#d6f0fe"/><rect x="455.89" y="91.35" width="55.22" height="9.62" transform="translate(374.37 576.9) rotate(-88.46)" fill="#97b8da"/><path d="M482.54,112.24a3,3,0,1,1-2.87,3.21A3,3,0,0,1,482.54,112.24Z" fill="#f0f3fa"/><path d="M471.2,109.57a3,3,0,1,1-2.86,3.2A3,3,0,0,1,471.2,109.57Z" fill="#f0f3fa"/><path d="M458.21,111.48a3,3,0,1,1-2.86,3.21A3,3,0,0,1,458.21,111.48Z" fill="#f0f3fa"/><path d="M490.55,111.62A2.29,2.29,0,1,1,488.4,114,2.28,2.28,0,0,1,490.55,111.62Z" fill="#f0f3fa"/><rect x="488.52" y="63.53" width="7.3" height="59.51" transform="translate(-2.16 12.22) rotate(-1.42)" fill="#b0bcd8"/><path d="M118.8,433.91c2.08,33.25,3.06,67.39,8.08,99.38,5.35-2.35,12.62-8.61,15.6-14.88-3.35-4.09-8.23-1-11.14,2-.94-14.71,2.91-32.49,4.73-47,1.28-10.16,8.59-38.74,1.47-46.74Z" fill="#cb774f"/><path d="M98.52,434.47C92.7,467.28,85.61,500.7,83,533c5.76-1,14.3-5.39,18.67-10.77-2.3-4.76-7.77-2.88-11.3-.75,2.57-14.5,10.49-30.88,15.69-44.54,3.63-9.59,17.47-35.64,12.44-45.09Z" fill="#cb774f"/><path d="M133.35,518.62a4.71,4.71,0,0,1-.37.45A2,2,0,0,1,133.35,518.62Z" fill="#0e335b"/><path d="M126.54,527.21s9.43-4.82,8.49-7.44c-.57-1.55-1.18-1.51-1.59-1.22,2.86-2.11,6.41-3.34,9-.14-3,6.27-10.25,12.53-15.6,14.88-.12-.76-.2-1.55-.32-2.31Z" fill="#0e335b"/><path d="M92.59,520c-.1.1-.31.22-.49.36A2.27,2.27,0,0,1,92.59,520Z" fill="#0e335b"/><path d="M83.94,526.76s10.3-2.47,10-5.24c-.18-1.65-.78-1.74-1.24-1.55,3.27-1.38,7-1.75,8.81,2-4.38,5.38-12.92,9.76-18.67,10.78.06-.77.16-1.55.24-2.32Z" fill="#0e335b"/><path d="M127.13,391c-6.4-.63-30.58-2.8-30.26,7.66,10.91,3.49,27,1.72,38-.55Z" fill="#fff"/><path d="M69.82,340.58c-4.1-1.91-8.22,2.23-9.84,5.78s.49,8.31,1,11.9c1,7.42.29,15.17.29,22.64,0,2.48-.81,6.73,0,9.08.7,2.09,3.27,4.16,4.6,6,7.35,10.18,14.72,21.14,18.62,32.91,1.26-2.23,3.7-5.11,4.38-7.6,1-3.53-1.48-5.4-3.66-8.52a62.14,62.14,0,0,1-8.14-17.92c-1.82-6.12-3.47-11.6-3.16-18.33.36-7.68,2.13-15,2-22.8C75.87,348.82,74.87,342.92,69.82,340.58Z" fill="#fff"/><path d="M113.89,341c-1.46-2.78-3.54-5.11-6.79-5.86-5.09-1.17-12.22-2.39-17.48-1.68a42,42,0,0,0-19.38,8.26S61.78,353,65,366.94s6.25,21.66,5.54,26.55-1.19,18.64-3.43,23.87c0,0,49.23,4.6,42-9.43s2.27-19.19,6.65-36.1c2.49-9.58,3-19.92-1.12-29.36C114.36,342,114.14,341.49,113.89,341Z" fill="#eaeaf3"/><rect x="132.3" y="457.02" width="1.25" height="75.39" transform="translate(-208.31 112.65) rotate(-26.73)" fill="#0e335b"/><path d="M64.26,400.53c-.77,5-3.53,9.14-4.16,14.22-.77,6.22-1.17,12.07,2.2,17.78,3,5.13,8.63,8.87,13.31,12.61s9.47,7.95,12,13.52c1.55,3.38,4.23,12.12,1.67,15.19,2.89.36,6.18-1.22,8.91-1.76,4.69-.91,9.17-2.87,13.88-3.26s9.18-.17,13.7-.59c5.32-.5,10.65-1.43,16-1.64a97.55,97.55,0,0,0,.43-21.94c-.58-6.77-.43-13.35-3.58-19.68-5.15-10.31-19.17-18.76-29.9-23.42-7.19-3.13-14.81-3.52-22.58-3.89-7.43-.34-15.17-1.44-22.55-1.4A5.9,5.9,0,0,1,64.26,400.53Z" fill="#0e335b"/><path d="M80,373.68c-23.88-25.94-28.48,19.53-29.21,33.55-1,18.8-1.19,39.69,10,55.5,13.88,19.65,51.19,18.71,61.73-3.45,8.38-17.64-5.08-24.15-15.52-36.76C94.84,407.91,93.19,388.06,80,373.68Z" fill="#2ab0e1"/><rect x="111.96" y="462.52" width="1.25" height="80.38" transform="translate(-129.26 47.84) rotate(-15.37)" fill="#0e335b"/><rect x="16.44" y="499.67" width="76.52" height="1.25" transform="matrix(0.27, -0.96, 0.96, 0.27, -441.51, 416.25)" fill="#0e335b"/><path d="M117.12,382.09c-6.17-9.78-15.28-25.74-11.61-37.69,5.24-17.13,15.18,6,17.81,12.54,1.66,4.12,2.62,8.78,4.5,12.75,4.3,9.06,10.88,16.25,7.45,27C133.07,403.56,117.69,383,117.12,382.09Z" fill="#fff"/><path d="M90.46,326.84s-1,11.44-7.62,16.83c4.06,1.41,14.78,5.63,18.72,3.34,1.85-1.08-1.89-12.26-1.89-12.26s8.8,7.77,14.4,1.59,6.22-18.11,4.93-24.2c-1.78-8.34-13.78-17.91-23.76-7.6A21.14,21.14,0,0,0,90.46,326.84Z" fill="#cb774f"/><path d="M113.14,315c2.06,1.68,6.35,4.2,9.6,3.11,2.9-1,6.85-5.8,2.05-7,7.65-6.32-.14-15-6.82-17.87-8.36-3.6-15.25-2.87-21.72,3.11-6,5.51-10.24,14.36-10,22.6.32,11.88,9.8,3.34,16.7,3.15a9.7,9.7,0,0,0-1.18-1.56c.72-2.85,6.34-13.27,8.25-5.31Z" fill="#0e335b"/><path d="M111.34,317.33c-3.37,10.42-.74,20.75-1.75,31.54-.57,6.06-4.52,8.13-9.84,10.38-5.57,2.37-6.63,1.06-11.06-2.71a15.21,15.21,0,0,1-21.91,7.09c-8-4.52-9.45-12.83-8.6-21.77,1.46-15.23,15.27-33,28.6-40.45a25.11,25.11,0,0,1,24-.44Z" fill="#0e335b"/><path d="M224.5,353.88s-10.18,32.37-11.16,33,7.1-1.32,11,1S217.3,377.74,224.5,353.88Z" fill="#4f5a79" opacity="0.4"/><path d="M260.94,353.88s8.83,28.95,10.67,32.46c-5.88-2.46-12.74,5.6-10.08,1.4C265,382.3,259.18,368.62,260.94,353.88Z" fill="#4f5a79" opacity="0.4"/><path d="M240.59,401H219.9l-6.47-27.44a4.17,4.17,0,0,1,.68-3.41,3.68,3.68,0,0,1,2.95-1.52h47.06a3.68,3.68,0,0,1,2.95,1.52,4.17,4.17,0,0,1,.68,3.41L261.29,401Z" fill="#fff"/><path d="M347.52,346.53s-15.19,14.8-12.46,41.28L337,400.66l27.65-.39s-10.13-8.18-19.09-5.84C345.57,394.43,359.59,350.43,347.52,346.53Z" fill="#f9cfc1"/><path d="M243.89,385.56c0,1.1-1.48,2-3.3,2s-3.3-.88-3.3-2,1.48-2,3.3-2S243.89,384.47,243.89,385.56Z" fill="#505b7a"/><polygon points="372.44 401.05 328.44 401.05 319.09 370.29 363.1 370.29 372.44 401.05" fill="#0e335b"/><path d="M472.9,586.4c0,1-8,1.85-17.88,1.85s-17.87-.83-17.87-1.85,8-1.85,17.87-1.85S472.9,585.38,472.9,586.4Z" fill="#757ec6" opacity="0.5"/><path d="M456.5,553.72c-3.11-6.28-8.66-9.64-5.62-17.33,1.22-3.07,4.21-4.84,5.77-7.52,1.94-3.34.65-4.1.46-7.77-.43-7.92,5.6-9.15,9.55-14.9,2.76-4,2.52-8.94,6.1-13.14s10-7.85,11.68-13.09c0,9.49,5.76,24.45-3.56,31.83,4.88,3.25,5.32,9,2.5,13.38-1.35,2.07-5.24,3.49-6.12,5.71-1.2,3,1.07,3.29,1.11,6,.13,8.65-30.72,18.92-23.7,28Z" fill="#2ab0e1"/><g opacity="0.3"><path d="M479.05,498.31a27,27,0,0,0,7-2.72c0-.26,0-.52-.06-.78a25.57,25.57,0,0,1-6.76,2.74c.34-1.16.66-2.32,1-3.46s.56-2,.85-3,.59-1.9.91-2.82.55-1.59.78-2.38c.15-.49.34-1.06.55-1.67a35.88,35.88,0,0,0,1.12-3.77c0-.15,0-.31,0-.45a11.17,11.17,0,0,1-1.54,3l-.35,1.05c-.21.61-.4,1.18-.55,1.69-.24.77-.51,1.57-.78,2.35s-.65,1.89-.92,2.85-.57,2-.85,3c-.69,2.53-1.42,5.12-2.27,7.69-2.59-1.62-3.44-5.77-3.71-9.36-.25.27-.49.53-.71.79.34,3.68,1.36,7.69,4.18,9.26-.09.28-.18.57-.28.85-.89,2.47-1.91,4.91-3,7.33a21.91,21.91,0,0,1-4.8-9.17c-.15.45-.3.9-.46,1.35a23,23,0,0,0,4.91,8.58c-.93,2.07-1.9,4.12-2.86,6.14l-.12.26c-.27.56-.53,1.13-.8,1.7a21.22,21.22,0,0,0-1.9-2.35,20.12,20.12,0,0,1-1.87-2.29,14.84,14.84,0,0,1-2-5.2l-.67.63a14.87,14.87,0,0,0,2,4.9,20.72,20.72,0,0,0,1.92,2.37,18.5,18.5,0,0,1,2.06,2.6l.22-.09c-1.22,2.57-2.44,5.21-3.54,7.86l-.17.42A14.6,14.6,0,0,0,463,525.1a17.56,17.56,0,0,1-1.55-1.72,26.88,26.88,0,0,1-3.73-6.8,9.28,9.28,0,0,0-.39,1.26,30.79,30.79,0,0,0,3.43,5.88,16.86,16.86,0,0,0,1.61,1.81c1.18,1.21,2.64,2.69,2.72,3.8-1.77,4.21-3.65,8.64-5.59,13a60.21,60.21,0,0,0-3.17,10c-.07.26-.14.52-.2.78l.36.69-.43,2.62c.38-1.32.72-2.64,1.06-4a61.28,61.28,0,0,1,3.14-9.86c2-4.34,3.84-8.79,5.61-13,.23-.55.43-1,.62-1.5.4-.93.8-1.87,1.22-2.8a29,29,0,0,1,5.2-.51,38.93,38.93,0,0,0,4.13-.3,24.93,24.93,0,0,0,7.8-2.64,7.88,7.88,0,0,0,.17-.87,25.59,25.59,0,0,1-8.11,2.84,39.16,39.16,0,0,1-4,.29,35.28,35.28,0,0,0-4.82.42c1-2.21,2-4.4,3-6.53a9.68,9.68,0,0,1,2.89-.52,16.19,16.19,0,0,0,2.41-.3c1.88-.46,5-1.22,7.11-2.76-.14-.19-.29-.39-.44-.57a19.82,19.82,0,0,1-6.9,2.67,14.79,14.79,0,0,1-2.26.29,15,15,0,0,0-2.39.31c1.53-3.22,3.07-6.5,4.44-9.85a8.77,8.77,0,0,0,.9,0,22.39,22.39,0,0,0,8.4-1.87c.1-.29.18-.59.26-.89a21.12,21.12,0,0,1-9.3,2.06c.42-1,.83-2.1,1.21-3.16C478,501.69,478.56,500,479.05,498.31Z" fill="#fff"/><path d="M455.24,559c.16-.47.31-1,.46-1.44a13.5,13.5,0,0,0-1,1.31Z" fill="#fff"/></g><path d="M447.39,554.23c-5.69-2.76-16.57-2-21.08-7.24-8.35-9.62,9.2-5,11.24-8.15,3.3-5.07-33.55-18.45-6-19.87-1.27-3.79-15.94-24.44-3-25.39,10-.74,9.32,19.53,12.31,24.42,2-3.11,8.52-10.9,12.44-4.94,2.9,4.39-3.9,11.5-5.38,15.52,2.28-2.35,5.78-4.45,9.68-3.84,2.55,6.76-3.05,11-5.3,16.65a25.21,25.21,0,0,1,5.89-.32c3.61,6.83-9,13.68-3.54,19.79Z" fill="#00729f"/><path d="M507.42,519.1c-8.22,3.13-30.05-.81-28.55,11.11-10.05-2.07-13.63,1-14,9.19,0-.88-3.71-.61-4.26-.39a9.43,9.43,0,0,0-2.78,2.39c-1.91,2.27-2.46,5-3.18,7.63a61.34,61.34,0,0,1-3.48,9.27c7.36-6.09,30.86-3.89,27.74-12.41,3.59.71,10.16,2.33,13.39.1,4.14-2.86.17-6.58-3-8.48,14.36-.26,13.52-5.56,12.33-11.58l2.8-2.28A13.07,13.07,0,0,0,507.42,519.1Z" fill="#bfd4ec"/><path d="M474.14,551.36c0,19.33-8.25,35-18.42,35s-18.41-15.67-18.41-35Z" fill="#bacae4"/><path d="M486.7,459.64c-.54,4.87.93,9.72.44,14.74-7.47.71-13.75,1.89-21.38,1.17,2-4.52,5.93-5.21,10.13-7.79,6.78-4.15,3.76-7.35,6.4-13.59Z" fill="#0e335b"/><path d="M522.21,462.42c-.54,4.87.94,9.73.45,14.74-7.48.71-13.76,1.9-21.39,1.18,2-4.53,5.94-5.22,10.13-7.79,6.78-4.16,3.76-7.36,6.4-13.6Z" fill="#0e335b"/><path d="M491.68,314.82l-16,150.4L491,467.31l14.62-101,4.18,100.27,15.32.69s13-71.61,13.93-92.61c2.78-27.15,5.2-47.19-4.18-58.48C534.85,316.22,503.61,320.31,491.68,314.82Z" fill="#0e335b"/><path d="M532.67,241.6c-2.35-4-5.7-7.23-7.69-11.65-.53-1.18-2.31-10.11-3.28-10.34-3.67-.9-9.65-2.65-12.59,0s-2.92,10.63-4.61,14.31c-.91,2-3.06,3.31-4,5.12-3.8,7.11,3.51,19.74,5.52,26.76,1.3,4.57,2,12.75,7,15.49,6.92,3.86,12.68-4.9,15.56-9.93,1.93-3.34,4-7.08,4.67-10.87.62-3.53,2.52-9,1.9-12.56A18.55,18.55,0,0,0,532.67,241.6Z" fill="#ba6b4f"/><path d="M504.4,234.48v-.15a8.11,8.11,0,0,0,.49-.92c1.52-3.66,1.47-11.42,4.2-14.19,2-2,5.34-1.58,8.29-.89,1.11,1.84,2.4,4.19,3.25,5.66a17.05,17.05,0,0,1-1.24,2.06C516.07,230.9,509.71,235.94,504.4,234.48Z" fill="#ecb49f" style="mix-blend-mode:multiply"/><path d="M518,226.16a18.24,18.24,0,0,0,2.58-1.65c5.37-4.26,5.43-17.63,4-23.94-1.59-7.06-6.11-10.52-12.11-11.1-14.48-1.38-19.14,25.35-12.59,35.78C503.26,230.65,512.33,229.13,518,226.16Z" fill="#ba6b4f"/><path d="M477.44,319.88c-2.74,4.07-4.09,12.58-5.52,13.86s-1.57-4-1.57-4-8.08,13.23-11,10.94c-2.44-1.94,3.9-17.07,6.7-19.51a24.12,24.12,0,0,0,4.57-5.57S480.2,315.81,477.44,319.88Z" fill="#ba6b4f"/><path d="M465.88,315.87s9-15,13.22-23.17c9.38-18.15,16.6-45.49,16.6-45.49l9,12.24L497,293.68l-20.47,29.58Z" fill="#2ab0e1"/><path d="M490,326.2c-1.78-9.86-1.32-45.4-.38-58,2-26.17,8.59-28.35,13.28-31.79a5.16,5.16,0,0,0,2.65,3.18c2.05.89,4.93.1,7-.35l1.14-.25a20.67,20.67,0,0,0,8-3.91c5.6-4.33,19.17,4.53,21.62,10.39A108,108,0,0,1,550,270.85c1.86,13.22-7.72,45.54-10.48,54.91Z" fill="#005f9d"/><polygon points="500.12 292.02 503.87 316.08 512.61 315.76 514.49 291.08 500.12 292.02" fill="#fff"/><path d="M518.58,298.51S504,297,499.05,304.1s12.76,2.39,19.93,2.33S523.88,299.29,518.58,298.51Z" fill="#ba6b4f"/><path d="M514.9,297.33c13.75,0,26.25-6.66,26.25-6.66s-20.75-48.08-11.36-54.22c2.66-1.74,8.28.93,13.4,9.13,4.21,6.74,7.26,18.31,10.11,28.57s10.34,18.18,5.76,22.76S532.79,309.3,516.57,309Z" fill="#2ab0e1"/><path d="M494.55,197.11c.95-.25,1.49-1,2.51-1.15.3,0,.29.06,0,0-5.47-4.58,5.59-8.28,8.43-8.76,7.32-1.25,14-1.12,19.41,4.64a15.74,15.74,0,0,1,3.85,14.4c-1.71,7-6.37,7.13-10.72,11,4.92-4.42-3.06-12.46-6.72-13.93-4.47-1.79-7.91,1.77-12.57-.16C498.12,203,491.51,197.92,494.55,197.11Z" fill="#0e335b"/><path d="M525,334.76s-1.64,11.08,9.45,15.19l-1.64,12.73S509.4,345.84,525,334.76Z" fill="#0e335b"/><rect x="499.18" y="290.46" width="17.18" height="3.12" fill="#0e335b"/><rect x="501.05" y="289.21" width="12.5" height="2.19" fill="#0e335b"/><path d="M503.78,282.67c-5.33-3.19-7.48-11.73-5-17,2.79-5.87,14.7-14.46,8.32-21.21,6.22,6.13,4.7,14.08-.81,20-2.54,2.7-4.79,5.86-3,10,1.93,4.41,5.21,6.13,5.23,11.32Z" fill="#fff" opacity="0.4"/><path d="M508.66,270.05c-.23-3.62,3.36-6.47,5.59-8.87-1,1.53-2.11,3.45-1.85,5.55.21,1.76,1.88,3.49,2.5,5.2,1.77,4.91.56,8-2.68,11.85a9.16,9.16,0,0,0,1.1-5,8.89,8.89,0,0,0-.29-1.87S508.86,273.38,508.66,270.05Z" fill="#fff" opacity="0.4"/><path d="M405.84,211.65a12.37,12.37,0,0,1-2.68-.3,12.07,12.07,0,1,1,5.36-23.54.91.91,0,1,1-.4,1.77,10.24,10.24,0,1,0,7.63,7.33.91.91,0,1,1,1.75-.48,12.08,12.08,0,0,1-11.66,15.22Z" fill="#00729f"/><path d="M405.7,202.18a.93.93,0,0,1-.61-.23l-6.58-6a.9.9,0,0,1-.06-1.28.91.91,0,0,1,1.28-.07l5.91,5.35,14.94-16.68a.9.9,0,1,1,1.34,1.21l-15.54,17.36a.9.9,0,0,1-.63.3Z" fill="#00729f"/><rect width="707.41" height="598.69" fill="none"/></g></g></g></g></svg>